<svg width="130" height="39" viewBox="0 0 130 39" fill="none" xmlns="http://www.w3.org/2000/svg">
<g id="logo 1" clip-path="url(#clip0_24_18)">
<path id="Vector" d="M2.12836 8.29956H6.01759L11.7442 24.4505L17.4709 8.29956H21.3601L13.3061 30.2975H10.1824L2.12836 8.29956ZM0.0306244 8.29956H3.90453L4.6089 24.0426V30.2975H0.0306244V8.29956ZM19.5839 8.29956H23.4732V30.2975H18.8796V24.0426L19.5839 8.29956Z" fill="#3D989E"/>
<path id="Vector_2" d="M36.8404 12.0616L30.777 30.2975H25.8924L34.1762 8.29956H37.2846L36.8404 12.0616ZM41.878 30.2975L35.7993 12.0616L35.3094 8.29956H38.4482L46.7779 30.2975H41.878ZM41.6024 22.1087V25.6592H29.8276V22.1087H41.6024Z" fill="white"/>
<path id="Vector_3" d="M64.9686 26.7621V30.2975H49.1667V26.7621H64.9686ZM64.7389 10.8227L51.203 30.2975H47.9721V27.6988L61.6151 8.29956H64.7389V10.8227ZM63.1615 8.29956V11.85H47.9875V8.29956H63.1615Z" fill="#3D989E"/>
<path id="Vector_4" d="M76.5749 22.4562H70.8941V18.9208H76.5749C77.4527 18.9208 78.1674 18.7798 78.7184 18.4978C79.2698 18.2057 79.6729 17.8028 79.9284 17.2891C80.1835 16.7754 80.3109 16.1963 80.3109 15.5516C80.3109 14.8969 80.1835 14.2875 79.9284 13.7235C79.6729 13.1594 79.2698 12.7062 78.7184 12.3637C78.1674 12.0213 77.4527 11.85 76.5749 11.85H72.4865V30.2975H67.8931V8.29956H76.5749C78.3206 8.29956 79.816 8.61182 81.0612 9.23627C82.3169 9.8507 83.2766 10.7018 83.94 11.7896C84.6034 12.8774 84.9353 14.1214 84.9353 15.5214C84.9353 16.9416 84.6034 18.1704 83.94 19.2079C83.2766 20.2453 82.3169 21.0461 81.0612 21.6101C79.816 22.1742 78.3206 22.4562 76.5749 22.4562Z" fill="#3D989E"/>
<path id="Vector_5" d="M98.2329 26.8159L92.1692 8.58001H87.2847L95.5683 30.5779H98.6768L98.2329 26.8159ZM103.27 8.58001L97.1915 26.8159L96.7015 30.5779H99.8403L108.17 8.58001H103.27ZM102.995 16.7688V13.2183H91.2199V16.7688H102.995Z" fill="white"/>
<path id="Vector_6" d="M115.542 8.58002L120.197 18.612L124.851 8.58002H129.858L122.524 22.5704V30.5779H117.869V22.5704L110.519 8.58002H115.542Z" fill="#3D989E"/>
<path id="Vector_7" d="M103.516 0.780029H92.4096L97.9628 7.22631L103.516 0.780029Z" fill="white"/>
<path id="Vector_8" d="M41.6484 38.4263H30.5422L36.0953 31.98L41.6484 38.4263Z" fill="white"/>
</g>
<defs>
<clipPath id="clip0_24_18">
<rect width="130" height="39" fill="white"/>
</clipPath>
</defs>
</svg>
